<svg width="93" height="32" viewBox="0 0 93 32" fill="none" xmlns="http://www.w3.org/2000/svg">
<path fill-rule="evenodd" clip-rule="evenodd" d="M87.6738 14.4756C88.2755 14.608 88.8829 14.7945 89.496 15.0375C90.108 15.2805 90.6615 15.6006 91.1566 15.9967C91.6505 16.394 92.0482 16.8788 92.3485 17.4523C92.6499 18.0269 92.8 18.7097 92.8 19.5031C92.8 20.5407 92.596 21.417 92.188 22.1344C91.7789 22.8506 91.2471 23.4299 90.5916 23.8709C89.9361 24.3119 89.2003 24.6321 88.3832 24.8301C87.5661 25.0294 86.749 25.1272 85.933 25.1272C84.6208 25.1272 82.99 24.8509 81.8245 24.2095C80.5501 23.5082 80.094 23.1051 79.6528 22.5904C79.4488 22.352 79.3938 22.0238 79.6069 21.7935L81.1587 19.5941C81.3627 19.373 81.7088 19.16 81.9552 19.3327C82.5052 19.7196 83.1596 20.1998 83.673 20.4624C84.724 21.0013 86.0488 21.2224 87.1386 20.6766C87.5581 20.4681 87.7586 20.0559 87.7357 19.7242C87.7025 19.2187 87.4801 18.9193 86.9644 18.6763C86.4487 18.4345 85.6431 18.18 84.5463 17.9152C83.9871 17.7839 83.4278 17.6077 82.8697 17.3866C82.3104 17.1655 81.8108 16.8684 81.3707 16.493C80.9295 16.1188 80.5696 15.6547 80.29 15.1031C80.0103 14.5527 79.8705 13.8906 79.8705 13.119C79.8705 12.1264 80.0745 11.2823 80.4837 10.588C80.8916 9.89245 81.4188 9.32589 82.064 8.88371C82.7081 8.44267 83.4232 8.11794 84.2071 7.90836C84.9921 7.69878 85.7714 7.59399 86.545 7.59399C87.7495 7.59399 88.7924 7.75866 89.9269 8.23539C90.8953 8.64188 91.3721 8.90789 92.078 9.48481C92.3255 9.68748 92.3485 10.0606 92.1284 10.2943L90.5206 12.4696C90.3154 12.7356 89.9991 12.7183 89.7504 12.5755C89.3424 12.3429 89.0766 12.1863 88.7098 11.9951C88.3351 11.7994 87.934 11.652 87.5191 11.5737C86.7146 11.4217 85.9938 11.4447 85.3634 11.743C84.944 11.9422 84.74 12.336 84.74 12.8208C84.74 13.2837 84.9703 13.6154 85.4333 13.8134C85.8952 14.0115 86.6424 14.2326 87.6738 14.4756ZM72.4982 27.0802C72.0512 28.2076 71.6524 28.8593 71.2146 29.5065C69.6801 31.7785 66.8058 32.3278 64.508 31.8315C63.4308 31.5171 62.5678 31.1521 62.1255 30.6362C61.9215 30.3989 61.8676 30.0708 62.0796 29.8405L63.4354 27.4084C63.6394 27.1873 63.9855 26.9731 64.2307 27.1459C64.4794 27.3209 65.0513 27.5823 65.4787 27.5823C66.1205 27.5454 66.8895 27.5144 67.6619 25.7329C67.9931 24.8612 67.9817 24.2762 67.4934 22.9934L61.6567 8.88371C61.5066 8.52212 61.7713 8.12254 62.161 8.12254H66.8184C67.0522 8.12254 67.2608 8.27224 67.3364 8.49564L70.7883 18.7097H70.8857L73.9605 8.51291C74.0304 8.28145 74.2424 8.12254 74.4831 8.12254H78.5549C78.9377 8.12254 79.2012 8.50831 79.0649 8.86874L72.4982 27.0802ZM58.1144 23.8709C57.4588 24.3119 56.722 24.6321 55.906 24.8301C55.0889 25.0294 54.2717 25.1272 53.4546 25.1272C52.1436 25.1272 50.5128 24.8509 49.3473 24.2095C48.0717 23.5082 47.6168 23.1051 47.1756 22.5904C46.9716 22.352 46.9166 22.0238 47.1286 21.7935L48.6814 19.5941C48.8854 19.373 49.2315 19.16 49.4768 19.3327C50.028 19.7196 50.6824 20.1998 51.1947 20.4624C52.2467 21.0013 53.5704 21.2224 54.6614 20.6766C55.0808 20.4681 55.2814 20.0559 55.2585 19.7242C55.2252 19.2187 55.0029 18.9193 54.4872 18.6763C53.9715 18.4345 53.1647 18.18 52.0691 17.9152C51.5098 17.7839 50.9506 17.6077 50.3925 17.3866C49.8332 17.1655 49.3335 16.8684 48.8934 16.493C48.4522 16.1188 48.0924 15.6547 47.8127 15.1031C47.5331 14.5527 47.3933 13.8906 47.3933 13.119C47.3933 12.1264 47.5973 11.2823 48.0064 10.588C48.4144 9.89245 48.9416 9.32589 49.5868 8.88371C50.2309 8.44267 50.9448 8.11794 51.7299 7.90836C52.5149 7.69878 53.2942 7.59399 54.0678 7.59399C55.2711 7.59399 56.3151 7.75866 57.4497 8.23539C58.4181 8.64188 58.8948 8.90789 59.6008 9.48481C59.8472 9.68748 59.8712 10.0606 59.6512 10.2943L58.0433 12.4696C57.837 12.7356 57.5219 12.7183 57.2732 12.5755C56.8652 12.3429 56.5982 12.1863 56.2326 11.9951C55.8578 11.7994 55.4567 11.652 55.0419 11.5737C54.2374 11.4217 53.5165 11.4447 52.8862 11.743C52.4668 11.9422 52.2628 12.336 52.2628 12.8208C52.2628 13.2837 52.4931 13.6154 52.955 13.8134C53.418 14.0115 54.1652 14.2326 55.1966 14.4756C55.7983 14.608 56.4057 14.7945 57.0176 15.0375C57.6308 15.2805 58.1843 15.6006 58.6794 15.9967C59.1733 16.394 59.5698 16.8788 59.8712 17.4523C60.1726 18.0269 60.3228 18.7097 60.3228 19.5031C60.3228 20.5407 60.1188 21.417 59.7108 22.1344C59.3017 22.8506 58.7699 23.4299 58.1144 23.8709ZM43.6871 24.5987H39.943C39.6404 24.5987 39.3963 24.3522 39.3963 24.0494V22.8449H39.3001C38.8909 23.5289 38.2732 24.0586 37.4458 24.4329C36.6184 24.8083 35.721 24.996 34.7538 24.996C34.1086 24.996 33.4416 24.9073 32.754 24.7311C32.0664 24.5549 31.4372 24.2682 30.8676 23.8709C30.298 23.4736 29.8305 22.9439 29.4649 22.2829C29.0993 21.6208 28.9171 20.8055 28.9171 19.8348C28.9171 18.6441 29.2345 17.6837 29.8683 16.956C30.502 16.2282 31.3191 15.6662 32.3196 15.269C33.319 14.8728 34.4306 14.608 35.6557 14.4756C36.8808 14.3431 38.0738 14.2763 39.2347 14.2763V14.0115C39.2347 13.1962 38.9551 12.5951 38.397 12.2082C37.8377 11.8236 37.1501 11.6301 36.333 11.6301C35.5801 11.6301 34.8546 11.7948 34.1567 12.1264C33.6307 12.3752 32.9007 12.7932 32.4904 13.1179C32.2658 13.2952 31.9449 13.2699 31.7523 13.0569L30.1834 10.9254C29.9749 10.6951 29.9978 10.3369 30.2327 10.1331C31.0808 9.39729 31.5461 8.95856 32.9958 8.28836C34.2129 7.72526 35.5377 7.59399 36.8487 7.59399C38.2033 7.59399 39.3482 7.76442 40.2834 8.10642C41.2185 8.44843 41.976 8.97813 42.5559 9.69438C43.137 10.4118 43.561 11.3157 43.8303 12.4074C44.0985 13.4991 44.2326 14.7945 44.2326 16.295V24.0494C44.2326 24.3522 43.9885 24.5987 43.6871 24.5987ZM39.3963 17.7735C39.3963 17.5778 39.2382 17.4189 39.0445 17.4189H38.719C38.1391 17.4189 37.5524 17.4477 36.9622 17.5018C36.3708 17.5571 35.8437 17.663 35.3818 17.8161C34.92 17.9716 34.5383 18.1962 34.2381 18.4944C33.9367 18.7926 33.7865 19.1842 33.7865 19.669C33.7865 19.9787 33.8553 20.2424 33.9963 20.4635C34.1349 20.6835 34.3126 20.8608 34.528 20.9921C34.7423 21.1245 34.9899 21.2189 35.2695 21.2742C35.548 21.3283 35.8173 21.356 36.0752 21.356C37.1501 21.356 37.9718 21.0531 38.5414 20.4462C39.111 19.8405 39.3963 19.0183 39.3963 17.982V17.7735ZM23.9055 22.709C23.0884 23.4702 22.1429 24.0609 21.0679 24.4801C19.993 24.8981 18.8435 25.1077 17.6173 25.1077C16.4139 25.1077 15.269 24.8981 14.1838 24.4801C13.0985 24.0609 12.153 23.4702 11.3462 22.709C10.5405 21.9478 9.90106 21.022 9.42775 19.9304C8.95444 18.8387 8.71836 17.6204 8.71836 16.2742C8.71836 14.9293 8.95444 13.7167 9.42775 12.6354C9.90106 11.5553 10.5405 10.6398 11.3462 9.88899C12.153 9.13935 13.0985 8.56588 14.1838 8.1686C15.269 7.77248 16.4139 7.57326 17.6173 7.57326C18.8435 7.57326 19.993 7.77248 21.0679 8.1686C22.1429 8.56588 23.0884 9.13935 23.9055 9.88899C24.7215 10.6398 25.3667 11.5553 25.84 12.6354C26.3122 13.7167 26.5494 14.9293 26.5494 16.2742C26.5494 17.6204 26.3122 18.8387 25.84 19.9304C25.3667 21.022 24.7215 21.9478 23.9055 22.709ZM17.6333 12.0608C15.3092 12.0608 13.4251 13.9562 13.4251 16.295C13.4251 18.2249 14.7178 19.8348 16.4724 20.3449C16.8334 20.4624 17.2173 20.5418 17.6505 20.5418C18.1765 20.5418 18.6361 20.437 19.0555 20.2632C20.6771 19.6747 21.8427 18.1282 21.8427 16.295C21.8427 13.9562 19.9586 12.0608 17.6333 12.0608ZM2.56879 6.37221C1.31847 6.13269 0.296217 5.10322 0.0589899 3.8446C-0.366186 1.57953 1.5706 -0.368862 3.82139 0.0595083C5.07171 0.297876 6.09511 1.32619 6.33348 2.58482C6.76324 4.85104 4.82302 6.80404 2.56879 6.37221ZM1.04801 8.12254H5.24361C5.54502 8.12254 5.79027 8.36897 5.79027 8.67298V24.0494C5.79027 24.3522 5.54502 24.5987 5.24361 24.5987H1.04801C0.746606 24.5987 0.501356 24.3522 0.501356 24.0494V8.67298C0.501356 8.36897 0.746606 8.12254 1.04801 8.12254Z" fill="#333333"/>
</svg>
