<svg width="153" height="54" viewBox="0 0 153 54" fill="none" xmlns="http://www.w3.org/2000/svg">
<path fill-rule="evenodd" clip-rule="evenodd" d="M144.548 24.9038C145.54 25.1232 146.542 25.4321 147.553 25.8346C148.562 26.237 149.474 26.7672 150.291 27.4233C151.105 28.0813 151.761 28.8842 152.256 29.834C152.752 30.7857 153 31.9167 153 33.2308C153 34.9492 152.664 36.4006 151.991 37.5888C151.316 38.7751 150.44 39.7344 149.359 40.4649C148.278 41.1954 147.065 41.7256 145.718 42.0536C144.371 42.3836 143.024 42.5457 141.678 42.5457C139.515 42.5457 136.826 42.088 134.905 41.0256C132.804 39.8641 132.052 39.1966 131.324 38.3441C130.988 37.9493 130.897 37.4057 131.249 37.0243L133.807 33.3815C134.143 33.0153 134.714 32.6624 135.12 32.9485C136.027 33.5894 137.106 34.3847 137.952 34.8195C139.685 35.7121 141.869 36.0783 143.666 35.1743C144.358 34.829 144.688 34.1463 144.65 33.597C144.596 32.7597 144.229 32.2638 143.379 31.8614C142.529 31.4609 141.2 31.0394 139.392 30.6007C138.47 30.3833 137.548 30.0915 136.628 29.7253C135.706 29.3591 134.882 28.8671 134.156 28.2453C133.429 27.6255 132.836 26.8568 132.375 25.9433C131.914 25.0316 131.683 23.935 131.683 22.6571C131.683 21.0131 132.019 19.6151 132.694 18.465C133.367 17.3131 134.236 16.3747 135.3 15.6424C136.361 14.9119 137.54 14.374 138.833 14.0269C140.127 13.6798 141.412 13.5063 142.687 13.5063C144.673 13.5063 146.393 13.779 148.263 14.5686C149.86 15.2418 150.646 15.6824 151.81 16.6379C152.218 16.9736 152.256 17.5915 151.893 17.9787L149.242 21.5815C148.904 22.022 148.382 21.9934 147.972 21.7569C147.299 21.3717 146.861 21.1123 146.257 20.7957C145.639 20.4714 144.977 20.2273 144.293 20.0976C142.967 19.8459 141.778 19.884 140.739 20.378C140.048 20.7079 139.711 21.3602 139.711 22.1632C139.711 22.9299 140.091 23.4791 140.855 23.8072C141.616 24.1352 142.848 24.5014 144.548 24.9038ZM119.528 45.7803C118.791 47.6475 118.134 48.727 117.412 49.7989C114.882 53.5618 110.143 54.4716 106.355 53.6496C104.579 53.1289 103.156 52.5243 102.427 51.6699C102.09 51.277 102.002 50.7334 102.351 50.352L104.586 46.3239C104.923 45.9577 105.493 45.603 105.898 45.8891C106.308 46.179 107.25 46.6119 107.955 46.6119C109.013 46.5509 110.281 46.4994 111.555 43.5489C112.101 42.1051 112.082 41.1362 111.277 39.0116L101.654 15.6424C101.406 15.0435 101.843 14.3817 102.485 14.3817H110.164C110.549 14.3817 110.893 14.6296 111.018 14.9996L116.709 31.9167H116.87L121.939 15.0282C122.054 14.6449 122.404 14.3817 122.801 14.3817H129.514C130.145 14.3817 130.58 15.0206 130.355 15.6176L119.528 45.7803ZM95.8136 40.4649C94.7328 41.1954 93.5179 41.7256 92.1726 42.0536C90.8254 42.3836 89.4782 42.5457 88.131 42.5457C85.9695 42.5457 83.2808 42.088 81.3592 41.0256C79.2562 39.8641 78.5061 39.1966 77.7787 38.3441C77.4423 37.9493 77.3516 37.4057 77.7012 37.0243L80.2614 33.3815C80.5977 33.0153 81.1684 32.6624 81.5727 32.9485C82.4815 33.5894 83.5604 34.3847 84.405 34.8195C86.1395 35.7121 88.3219 36.0783 90.1206 35.1743C90.8122 34.829 91.1428 34.1463 91.105 33.597C91.0502 32.7597 90.6837 32.2638 89.8334 31.8614C88.9832 31.4609 87.653 31.0394 85.8467 30.6007C84.9246 30.3833 84.0026 30.0915 83.0824 29.7253C82.1603 29.3591 81.3365 28.8671 80.611 28.2453C79.8835 27.6255 79.2902 26.8568 78.8292 25.9433C78.3682 25.0316 78.1377 23.935 78.1377 22.6571C78.1377 21.0131 78.474 19.6151 79.1485 18.465C79.8212 17.3131 80.6903 16.3747 81.7541 15.6424C82.816 14.9119 83.9931 14.374 85.2874 14.0269C86.5817 13.6798 87.8665 13.5063 89.1419 13.5063C91.1258 13.5063 92.8471 13.779 94.7177 14.5686C96.3143 15.2418 97.1003 15.6824 98.2642 16.6379C98.6704 16.9736 98.7101 17.5915 98.3473 17.9787L95.6964 21.5815C95.3563 22.022 94.8367 21.9934 94.4267 21.7569C93.7541 21.3717 93.3138 21.1123 92.7111 20.7957C92.0932 20.4714 91.4319 20.2273 90.7479 20.0976C89.4215 19.8459 88.2331 19.884 87.1938 20.378C86.5023 20.7079 86.166 21.3602 86.166 22.1632C86.166 22.9299 86.5458 23.4791 87.3072 23.8072C88.0706 24.1352 89.3025 24.5014 91.003 24.9038C91.995 25.1232 92.9964 25.4321 94.0054 25.8346C95.0162 26.237 95.9288 26.7672 96.7451 27.4233C97.5594 28.0813 98.2132 28.8842 98.7101 29.834C99.207 30.7857 99.4546 31.9167 99.4546 33.2308C99.4546 34.9492 99.1182 36.4006 98.4456 37.5888C97.771 38.7751 96.8943 39.7344 95.8136 40.4649ZM72.0271 41.6703H65.8543C65.3555 41.6703 64.953 41.2621 64.953 40.7605V38.7656H64.7943C64.1198 39.8985 63.1013 40.7758 61.7371 41.3956C60.373 42.0174 58.8935 42.3283 57.2988 42.3283C56.235 42.3283 55.1354 42.1814 54.0017 41.8896C52.868 41.5978 51.8307 41.1229 50.8916 40.4649C49.9526 39.8069 49.1817 38.9296 48.5789 37.8348C47.9762 36.7382 47.6758 35.3879 47.6758 33.7801C47.6758 31.808 48.1992 30.2174 49.244 29.012C50.2889 27.8066 51.6361 26.8759 53.2856 26.2179C54.9332 25.5618 56.766 25.1232 58.7858 24.9038C60.8056 24.6845 62.7726 24.5739 64.6866 24.5739V24.1352C64.6866 22.7849 64.2256 21.7893 63.3054 21.1485C62.3833 20.5115 61.2497 20.1911 59.9025 20.1911C58.6611 20.1911 57.4651 20.4638 56.3144 21.0131C55.4471 21.4251 54.2435 22.1174 53.5671 22.6552C53.1968 22.9489 52.6677 22.907 52.3503 22.5541L49.7636 19.0239C49.4198 18.6424 49.4575 18.0493 49.8449 17.7117C51.2431 16.493 52.0102 15.7663 54.4004 14.6563C56.407 13.7237 58.5912 13.5063 60.7527 13.5063C62.9861 13.5063 64.8736 13.7885 66.4154 14.355C67.9572 14.9214 69.2062 15.7987 70.1622 16.985C71.1202 18.1732 71.8193 19.6704 72.2633 21.4785C72.7055 23.2865 72.9265 25.4321 72.9265 27.9173V40.7605C72.9265 41.2621 72.5241 41.6703 72.0271 41.6703ZM64.953 30.3661C64.953 30.0419 64.6923 29.7787 64.3729 29.7787H63.8363C62.8803 29.7787 61.9129 29.8264 60.9398 29.916C59.9648 30.0076 59.0957 30.183 58.3342 30.4367C57.5728 30.6942 56.9436 31.0661 56.4485 31.5601C55.9516 32.054 55.7041 32.7025 55.7041 33.5054C55.7041 34.0185 55.8175 34.4552 56.0499 34.8214C56.2785 35.1857 56.5714 35.4794 56.9266 35.6968C57.2799 35.9162 57.688 36.0726 58.1491 36.1641C58.6082 36.2537 59.0522 36.2995 59.4774 36.2995C61.2497 36.2995 62.6044 35.7979 63.5435 34.7928C64.4825 33.7896 64.953 32.4279 64.953 30.7113V30.3661ZM39.4132 38.5405C38.066 39.8012 36.5072 40.7796 34.7349 41.4738C32.9625 42.1661 31.0674 42.5133 29.0457 42.5133C27.0618 42.5133 25.1742 42.1661 23.3849 41.4738C21.5955 40.7796 20.0367 39.8012 18.7066 38.5405C17.3783 37.2798 16.3239 35.7464 15.5436 33.9384C14.7633 32.1303 14.374 30.1125 14.374 27.8829C14.374 25.6553 14.7633 23.647 15.5436 21.8561C16.3239 20.0671 17.3783 18.5509 18.7066 17.3074C20.0367 16.0658 21.5955 15.116 23.3849 14.458C25.1742 13.8019 27.0618 13.4719 29.0457 13.4719C31.0674 13.4719 32.9625 13.8019 34.7349 14.458C36.5072 15.116 38.066 16.0658 39.4132 17.3074C40.7585 18.5509 41.8222 20.0671 42.6026 21.8561C43.381 23.647 43.7721 25.6553 43.7721 27.8829C43.7721 30.1125 43.381 32.1303 42.6026 33.9384C41.8222 35.7464 40.7585 37.2798 39.4132 38.5405ZM29.0721 20.9044C25.2403 20.9044 22.134 24.0437 22.134 27.9173C22.134 31.1138 24.2654 33.7801 27.1581 34.625C27.7533 34.8195 28.3863 34.9511 29.1005 34.9511C29.9677 34.9511 30.7254 34.7776 31.417 34.4896C34.0905 33.515 36.0121 30.9536 36.0121 27.9173C36.0121 24.0437 32.9059 20.9044 29.0721 20.9044ZM4.23518 11.4827C2.17377 11.086 0.488376 9.38092 0.0972571 7.29633C-0.603733 3.54481 2.58946 0.317783 6.30036 1.02727C8.36176 1.42207 10.049 3.12522 10.4421 5.20982C11.1506 8.96324 7.95175 12.1979 4.23518 11.4827ZM1.72786 14.3817H8.64518C9.14211 14.3817 9.54645 14.7898 9.54645 15.2933V40.7605C9.54645 41.2621 9.14211 41.6703 8.64518 41.6703H1.72786C1.23093 41.6703 0.826589 41.2621 0.826589 40.7605V15.2933C0.826589 14.7898 1.23093 14.3817 1.72786 14.3817Z" fill="white"/>
</svg>
