<svg width="84" height="25" viewBox="0 0 84 25" fill="none" xmlns="http://www.w3.org/2000/svg">
<path d="M2.3125 13.0469L2.28125 11.4375H7.79688C9.48438 11.4375 10.7865 11.0781 11.7031 10.3594C12.6302 9.63021 13.0938 8.55729 13.0938 7.14062C13.0938 5.70312 12.6354 4.63542 11.7188 3.9375C10.8021 3.23958 9.43229 2.89062 7.60938 2.89062H2.8125V24H0.890625V1.25H7.60938C9.92188 1.25 11.7344 1.72396 13.0469 2.67188C14.3698 3.61979 15.0312 5.125 15.0312 7.1875C15.0312 8.125 14.8229 8.97396 14.4062 9.73438C14 10.4844 13.4115 11.099 12.6406 11.5781C11.8802 12.0469 10.974 12.3385 9.92188 12.4531L8.71875 13.0469H2.3125ZM1.70312 24L2.6875 22.375H8.57812C10.2552 22.375 11.5625 21.9531 12.5 21.1094C13.4479 20.2552 13.9219 19.0938 13.9219 17.625C13.9219 16.7604 13.7344 15.9844 13.3594 15.2969C12.9844 14.599 12.4115 14.0521 11.6406 13.6562C10.8802 13.25 9.90625 13.0469 8.71875 13.0469H4.73438L4.76562 11.4375H10.4062L10.75 12.0312C11.7708 12.1354 12.6615 12.4479 13.4219 12.9688C14.1927 13.4896 14.7865 14.151 15.2031 14.9531C15.6302 15.7552 15.8438 16.6354 15.8438 17.5938C15.8438 19.6667 15.1719 21.2552 13.8281 22.3594C12.4948 23.4531 10.7448 24 8.57812 24H1.70312ZM19.0469 15.2969C19.0469 13.651 19.3594 12.1875 19.9844 10.9062C20.6094 9.625 21.4844 8.61979 22.6094 7.89062C23.7344 7.15104 25.0573 6.78125 26.5781 6.78125C28.1094 6.78125 29.4427 7.15104 30.5781 7.89062C31.7135 8.61979 32.5885 9.625 33.2031 10.9062C33.8281 12.1875 34.1406 13.651 34.1406 15.2969V15.8125C34.1406 17.4479 33.8281 18.9062 33.2031 20.1875C32.5885 21.4688 31.7135 22.4792 30.5781 23.2188C29.4531 23.9479 28.1302 24.3125 26.6094 24.3125C25.0781 24.3125 23.7448 23.9479 22.6094 23.2188C21.4844 22.4792 20.6094 21.4688 19.9844 20.1875C19.3594 18.9062 19.0469 17.4479 19.0469 15.8125V15.2969ZM20.9219 15.8125C20.9219 17.0417 21.1406 18.1823 21.5781 19.2344C22.0156 20.2865 22.6562 21.1354 23.5 21.7812C24.3438 22.4167 25.3802 22.7344 26.6094 22.7344C27.8281 22.7344 28.8542 22.4167 29.6875 21.7812C30.5312 21.1354 31.1719 20.2865 31.6094 19.2344C32.0469 18.1823 32.2656 17.0417 32.2656 15.8125V15.2969C32.2656 14.0781 32.0469 12.9427 31.6094 11.8906C31.1719 10.8385 30.5312 9.98958 29.6875 9.34375C28.8438 8.6875 27.8073 8.35938 26.5781 8.35938C25.3594 8.35938 24.3281 8.6875 23.4844 9.34375C22.6406 9.98958 22 10.8385 21.5625 11.8906C21.1354 12.9427 20.9219 14.0781 20.9219 15.2969V15.8125ZM36.9844 15.2969C36.9844 13.651 37.2969 12.1875 37.9219 10.9062C38.5469 9.625 39.4219 8.61979 40.5469 7.89062C41.6719 7.15104 42.9948 6.78125 44.5156 6.78125C46.0469 6.78125 47.3802 7.15104 48.5156 7.89062C49.651 8.61979 50.526 9.625 51.1406 10.9062C51.7656 12.1875 52.0781 13.651 52.0781 15.2969V15.8125C52.0781 17.4479 51.7656 18.9062 51.1406 20.1875C50.526 21.4688 49.651 22.4792 48.5156 23.2188C47.3906 23.9479 46.0677 24.3125 44.5469 24.3125C43.0156 24.3125 41.6823 23.9479 40.5469 23.2188C39.4219 22.4792 38.5469 21.4688 37.9219 20.1875C37.2969 18.9062 36.9844 17.4479 36.9844 15.8125V15.2969ZM38.8594 15.8125C38.8594 17.0417 39.0781 18.1823 39.5156 19.2344C39.9531 20.2865 40.5938 21.1354 41.4375 21.7812C42.2812 22.4167 43.3177 22.7344 44.5469 22.7344C45.7656 22.7344 46.7917 22.4167 47.625 21.7812C48.4688 21.1354 49.1094 20.2865 49.5469 19.2344C49.9844 18.1823 50.2031 17.0417 50.2031 15.8125V15.2969C50.2031 14.0781 49.9844 12.9427 49.5469 11.8906C49.1094 10.8385 48.4688 9.98958 47.625 9.34375C46.7812 8.6875 45.7448 8.35938 44.5156 8.35938C43.2969 8.35938 42.2656 8.6875 41.4219 9.34375C40.5781 9.98958 39.9375 10.8385 39.5 11.8906C39.0729 12.9427 38.8594 14.0781 38.8594 15.2969V15.8125ZM57.8125 24H55.9531V0H57.8125V24ZM60.5312 14.9219L57.1562 18.1719L56.875 16.3594L59.5938 13.4531L66.0469 7.09375H68.4219L60.5312 14.9219ZM59.7344 15.2031L60.7656 13.6094L69.0469 24H66.7969L59.7344 15.2031ZM81.7656 19.6875C81.7656 19.2292 81.6458 18.776 81.4062 18.3281C81.1771 17.8802 80.7396 17.4688 80.0938 17.0938C79.4479 16.7188 78.4948 16.3958 77.2344 16.125C75.9844 15.8646 74.9167 15.5417 74.0312 15.1562C73.1562 14.7708 72.4896 14.276 72.0312 13.6719C71.5729 13.0677 71.3438 12.3021 71.3438 11.375C71.3438 10.5312 71.5833 9.76562 72.0625 9.07812C72.5417 8.38021 73.2292 7.82292 74.125 7.40625C75.0208 6.98958 76.0781 6.78125 77.2969 6.78125C78.599 6.78125 79.7135 7 80.6406 7.4375C81.5781 7.875 82.2969 8.47396 82.7969 9.23438C83.2969 9.99479 83.5469 10.8594 83.5469 11.8281H81.6562C81.6562 10.9531 81.2812 10.1562 80.5312 9.4375C79.7812 8.71875 78.7031 8.35938 77.2969 8.35938C76.3281 8.35938 75.5417 8.51042 74.9375 8.8125C74.3333 9.10417 73.8906 9.47917 73.6094 9.9375C73.3385 10.3854 73.2031 10.8438 73.2031 11.3125C73.2031 11.8125 73.3177 12.2604 73.5469 12.6562C73.776 13.0417 74.2135 13.3906 74.8594 13.7031C75.5052 14.0156 76.4583 14.3177 77.7188 14.6094C79.0833 14.9115 80.1979 15.2812 81.0625 15.7188C81.9375 16.1458 82.5833 16.6771 83 17.3125C83.4271 17.9375 83.6406 18.6979 83.6406 19.5938C83.6406 20.5208 83.3802 21.3438 82.8594 22.0625C82.349 22.7708 81.625 23.3229 80.6875 23.7188C79.7604 24.1146 78.6615 24.3125 77.3906 24.3125C75.9635 24.3125 74.7552 24.0781 73.7656 23.6094C72.7865 23.1302 72.0417 22.5052 71.5312 21.7344C71.0312 20.9635 70.7812 20.1354 70.7812 19.25H72.6406C72.7031 20.1354 72.9792 20.8333 73.4688 21.3438C73.9688 21.8438 74.5729 22.2031 75.2812 22.4219C75.9896 22.6302 76.6927 22.7344 77.3906 22.7344C78.349 22.7344 79.151 22.5938 79.7969 22.3125C80.4427 22.0208 80.9323 21.6458 81.2656 21.1875C81.599 20.7188 81.7656 20.2188 81.7656 19.6875Z" fill="white"/>
</svg>
